<svg xmlns="http://www.w3.org/2000/svg" width="880" height="571" viewBox="0 0 1340 870" font-family="ui-sans-serif, system-ui, Arial">
<defs><marker id="ah" markerWidth="10" markerHeight="10" refX="8" refY="3" orient="auto"><path d="M0,0 L8,3 L0,6 z" fill="#475569"/></marker></defs>
<rect width="1340" height="870" fill="#ffffff"/>
<text x="620" y="30" font-size="21" font-weight="800" text-anchor="middle" fill="#0f172a">Space IN CRM — System Flow</text>
<rect x="30" y="44" width="1180" height="180" rx="14" fill="#eff6ff" stroke="#cbd5e1" stroke-width="1.5" stroke-dasharray="6 5"/><text x="46" y="68" font-size="14" font-weight="800" fill="#64748b" letter-spacing="1">BROWSER  (client components)</text>
<rect x="30" y="300" width="1180" height="290" rx="14" fill="#f8fafc" stroke="#cbd5e1" stroke-width="1.5" stroke-dasharray="6 5"/><text x="46" y="324" font-size="14" font-weight="800" fill="#64748b" letter-spacing="1">NEXT.JS SERVER</text>
<rect x="30" y="660" width="1180" height="150" rx="14" fill="#f0fdf4" stroke="#cbd5e1" stroke-width="1.5" stroke-dasharray="6 5"/><text x="46" y="684" font-size="14" font-weight="800" fill="#64748b" letter-spacing="1">SUPABASE  (Postgres — accessed with the service-role key)</text>
<rect x="80" y="95" width="190" height="66" rx="9" fill="#dbeafe" stroke="#60a5fa" stroke-width="1.5"/><text x="175" y="119.5" font-size="15" font-weight="700" text-anchor="middle" dominant-baseline="middle" fill="#1f2937">/login page</text><text x="175" y="136.5" font-size="13" font-weight="400" text-anchor="middle" dominant-baseline="middle" fill="#1f2937">email + password</text>
<rect x="560" y="95" width="260" height="66" rx="9" fill="#dbeafe" stroke="#60a5fa" stroke-width="1.5"/><text x="690" y="112" font-size="14" font-weight="700" text-anchor="middle" dominant-baseline="middle" fill="#1f2937">CrmProvider</text><text x="690" y="128" font-size="12" font-weight="400" text-anchor="middle" dominant-baseline="middle" fill="#1f2937">context: clients, floors,</text><text x="690" y="144" font-size="12" font-weight="400" text-anchor="middle" dominant-baseline="middle" fill="#1f2937">overrides, activity log</text>
<rect x="940" y="95" width="230" height="66" rx="9" fill="#dbeafe" stroke="#60a5fa" stroke-width="1.5"/><text x="1055" y="120" font-size="14" font-weight="700" text-anchor="middle" dominant-baseline="middle" fill="#1f2937">Dashboard pages</text><text x="1055" y="136" font-size="12" font-weight="400" text-anchor="middle" dominant-baseline="middle" fill="#1f2937">clients · offices · analytics</text>
<rect x="60" y="252" width="1120" height="30" rx="15" fill="#fff1f2" stroke="#fda4af" stroke-dasharray="6 5"/><text x="620" y="271" font-size="13" font-weight="600" text-anchor="middle" fill="#be123c">🔒 middleware / proxy.ts — guards every route: no valid session ⇒ redirect to /login</text>
<rect x="80" y="360" width="200" height="66" rx="9" fill="#e2e8f0" stroke="#94a3b8" stroke-width="1.5"/><text x="180" y="384.5" font-size="15" font-weight="700" text-anchor="middle" dominant-baseline="middle" fill="#1f2937">NextAuth</text><text x="180" y="401.5" font-size="13" font-weight="400" text-anchor="middle" dominant-baseline="middle" fill="#1f2937">Credentials + JWT</text>
<rect x="560" y="360" width="260" height="66" rx="9" fill="#e2e8f0" stroke="#94a3b8" stroke-width="1.5"/><text x="690" y="384.5" font-size="15" font-weight="700" text-anchor="middle" dominant-baseline="middle" fill="#1f2937">(dashboard)/layout.tsx</text><text x="690" y="401.5" font-size="13" font-weight="400" text-anchor="middle" dominant-baseline="middle" fill="#1f2937">server component</text>
<rect x="560" y="480" width="260" height="60" rx="9" fill="#e2e8f0" stroke="#94a3b8" stroke-width="1.5"/><text x="690" y="501.5" font-size="15" font-weight="700" text-anchor="middle" dominant-baseline="middle" fill="#1f2937">fetchCrmData()</text><text x="690" y="518.5" font-size="13" font-weight="400" text-anchor="middle" dominant-baseline="middle" fill="#1f2937">read snapshot once</text>
<rect x="940" y="415" width="230" height="96" rx="9" fill="#fde68a" stroke="#f59e0b" stroke-width="1.5"/><text x="1055" y="447" font-size="14" font-weight="700" text-anchor="middle" dominant-baseline="middle" fill="#1f2937">Server Actions</text><text x="1055" y="463" font-size="12" font-weight="400" text-anchor="middle" dominant-baseline="middle" fill="#1f2937">createClient · update</text><text x="1055" y="479" font-size="12" font-weight="400" text-anchor="middle" dominant-baseline="middle" fill="#1f2937">delete · markPaid · …</text>
<path d="M80,721 a75,9 0 0 1 150,0 v42 a75,9 0 0 1 -150,0 z" fill="#dcfce7" stroke="#22c55e" stroke-width="1.5"/><path d="M80,721 a75,9 0 0 0 150,0" fill="none" stroke="#22c55e" stroke-width="1.5"/><text x="155" y="748" font-size="13" font-weight="600" text-anchor="middle" fill="#166534">clients</text>
<path d="M270,721 a82.5,9 0 0 1 165,0 v42 a82.5,9 0 0 1 -165,0 z" fill="#dcfce7" stroke="#22c55e" stroke-width="1.5"/><path d="M270,721 a82.5,9 0 0 0 165,0" fill="none" stroke="#22c55e" stroke-width="1.5"/><text x="352.5" y="748" font-size="13" font-weight="600" text-anchor="middle" fill="#166534">activity_log</text>
<path d="M475,721 a92.5,9 0 0 1 185,0 v42 a92.5,9 0 0 1 -185,0 z" fill="#dcfce7" stroke="#22c55e" stroke-width="1.5"/><path d="M475,721 a92.5,9 0 0 0 185,0" fill="none" stroke="#22c55e" stroke-width="1.5"/><text x="567.5" y="748" font-size="13" font-weight="600" text-anchor="middle" fill="#166534">office_overrides</text>
<path d="M680,721 a95,9 0 0 1 190,0 v42 a95,9 0 0 1 -190,0 z" fill="#dcfce7" stroke="#22c55e" stroke-width="1.5"/><path d="M680,721 a95,9 0 0 0 190,0" fill="none" stroke="#22c55e" stroke-width="1.5"/><text x="775" y="748" font-size="13" font-weight="600" text-anchor="middle" fill="#166534">crm_settings (floors)</text>
<path d="M905,721 a75,9 0 0 1 150,0 v42 a75,9 0 0 1 -150,0 z" fill="#dcfce7" stroke="#22c55e" stroke-width="1.5"/><path d="M905,721 a75,9 0 0 0 150,0" fill="none" stroke="#22c55e" stroke-width="1.5"/><text x="980" y="748" font-size="13" font-weight="600" text-anchor="middle" fill="#166534">crm_users</text>
<line x1="175" y1="161" x2="180" y2="360" stroke="#475569" stroke-width="2" marker-end="url(#ah)" />
<rect x="141.6" y="309" width="66.8" height="20" rx="5" fill="#ffffff" stroke="#e2e8f0"/><text x="175" y="323" font-size="12" text-anchor="middle" fill="#475569">signIn()</text>
<line x1="180" y1="426" x2="980" y2="712" stroke="#475569" stroke-width="2" marker-end="url(#ah)" />
<rect x="263.5" y="589" width="113" height="20" rx="5" fill="#ffffff" stroke="#e2e8f0"/><text x="320" y="603" font-size="12" text-anchor="middle" fill="#475569">verify + bcrypt</text>
<line x1="270" y1="128" x2="560" y2="397" stroke="#475569" stroke-width="2" marker-end="url(#ah)" />
<rect x="355.2" y="239" width="119.6" height="20" rx="5" fill="#ffffff" stroke="#e2e8f0"/><text x="415" y="253" font-size="12" text-anchor="middle" fill="#475569">router.push('/')</text>
<line x1="690" y1="426" x2="690" y2="480" stroke="#475569" stroke-width="2" marker-end="url(#ah)" />
<line x1="540" y1="540" x2="155" y2="712" stroke="#475569" stroke-width="2" marker-end="url(#ah)" />
<line x1="630" y1="540" x2="352.5" y2="712" stroke="#475569" stroke-width="2" marker-end="url(#ah)" />
<rect x="471.05" y="615" width="40.4" height="20" rx="5" fill="#ffffff" stroke="#e2e8f0"/><text x="491.25" y="629" font-size="12" text-anchor="middle" fill="#475569">read</text>
<line x1="730" y1="540" x2="567.5" y2="712" stroke="#475569" stroke-width="2" marker-end="url(#ah)" />
<line x1="810" y1="540" x2="775" y2="712" stroke="#475569" stroke-width="2" marker-end="url(#ah)" />
<line x1="690" y1="360" x2="690" y2="161" stroke="#475569" stroke-width="2" marker-end="url(#ah)" />
<rect x="641.7" y="309" width="86.6" height="20" rx="5" fill="#ffffff" stroke="#e2e8f0"/><text x="685" y="323" font-size="12" text-anchor="middle" fill="#475569">initialData</text>
<line x1="820" y1="128" x2="940" y2="128" stroke="#475569" stroke-width="2" marker-end="url(#ah)" />
<rect x="846.6" y="117" width="66.8" height="20" rx="5" fill="#ffffff" stroke="#e2e8f0"/><text x="880" y="131" font-size="12" text-anchor="middle" fill="#475569">snapshot</text>
<line x1="1055" y1="161" x2="1055" y2="415" stroke="#475569" stroke-width="2" marker-end="url(#ah)" />
<rect x="1058.3" y="309" width="73.4" height="20" rx="5" fill="#ffffff" stroke="#e2e8f0"/><text x="1095" y="323" font-size="12" text-anchor="middle" fill="#475569">mutations</text>
<line x1="1055" y1="511" x2="1000" y2="712" stroke="#475569" stroke-width="2" marker-end="url(#ah)" />
<rect x="993.4" y="614" width="93.19999999999999" height="20" rx="5" fill="#ffffff" stroke="#e2e8f0"/><text x="1040" y="628" font-size="12" text-anchor="middle" fill="#475569">read / write</text>
<line x1="940" y1="443" x2="820" y2="142" stroke="#475569" stroke-width="2" marker-end="url(#ah)" />
<rect x="754.2" y="239" width="251.6" height="20" rx="5" fill="#ffffff" stroke="#e2e8f0"/><text x="880" y="253" font-size="12" text-anchor="middle" fill="#475569">then refresh() (re-reads everything)</text>
</svg>